<svg width="64" height="64" viewBox="0 0 64 64" fill="none" xmlns="http://www.w3.org/2000/svg">
<path d="M2 28.25V35.75C2 41.9632 7.03685 47 13.25 47C13.25 51.1421 16.6079 54.5 20.75 54.5H24.5C28.6421 54.5 32 57.8579 32 62C32 57.8579 35.3579 54.5 39.5 54.5H43.25C47.3921 54.5 50.75 51.1421 50.75 47C56.9632 47 62 41.9632 62 35.75V28.25C62 22.0369 56.9632 17 50.75 17C50.75 12.8579 47.3921 9.5 43.25 9.5H39.5C35.3579 9.5 32 6.1421 32 2C32 6.1421 28.6421 9.5 24.5 9.5H20.75C16.6079 9.5 13.25 12.8579 13.25 17C7.03685 17 2 22.0369 2 28.25Z" fill="#EB4336"/>
<path d="M32.0641 32.0339L45.0019 24.5153L44.9593 39.4775L32.0215 46.9961L32.0641 32.0339Z" fill="white"/>
<path d="M19.0394 24.5183L31.9772 16.9997L45.0008 24.5188L32.063 32.0374L19.0394 24.5183Z" fill="#F8D04D"/>
<path d="M32.0625 32.0639L32.0201 47.026L18.9966 39.5071L19.0391 24.5449L32.0625 32.0639Z" fill="#1C1C1C"/>
</svg>
